# xmcd
#
# Track frame offsets:
# 150
# 20087
# 40365
# 59557
# 82469
# 100170
# 124419
# 148229
# 169915
# 183332
# 204969
# 226634
# 248243
# 271210
#
# Disc length: 3913 seconds
#
#
# Revision: 0
# Processed by: cddbd v1.5.1PL2 Copyright (c) Steve Scherf et al.
# Submitted via: FreeRIP 2.945 
#
DISCID=cf0f470e
DTITLE=Eric Claption - Reptile [DTS]
DYEAR=2001
DGENRE=Rock
TTITLE0=Reptile
TTITLE1=Got You On My Mind
TTITLE2=Travelin' Light
TTITLE3=Believe in Life
TTITLE4=Come Back Baby
TTITLE5=Broken Down
TTITLE6=Find Myself
TTITLE7=I Ain't Gonna Stand For It
TTITLE8=I Want a Little Girl
TTITLE9=Second Nature
TTITLE10=Don't Let Me Be Lonely Tonight
TTITLE11=Modern Girl
TTITLE12=Superman Inside
TTITLE13=Son and Sylvia
EXTD=
EXTT0=
EXTT1=
EXTT2=
EXTT3=
EXTT4=
EXTT5=
EXTT6=
EXTT7=
EXTT8=
EXTT9=
EXTT10=
EXTT11=
EXTT12=
EXTT13=
PLAYORDER=
